C:\GBW_MyPrograms\KinderuniversiteitApp\Resultaten\Ellis_v10102025\Mars\Mars_v1.mot
version=1
nRows=8
nColumns=29
inDegrees=yes
endheader
                time	         pelvis_tilt	           pelvis_tx	           pelvis_ty	       hip_flexion_l	       hip_flexion_r	        knee_angle_l	        knee_angle_r	       ankle_angle_l	       ankle_angle_r	    lumbar_extension	hamstrings_r/activation	bifemsh_r/activation	glut_max_r/activation	iliopsoas_r/activation	rect_fem_r/activation	  vasti_r/activation	gastroc_r/activation	 soleus_r/activation	tib_ant_r/activation	hamstrings_l/activation	bifemsh_l/activation	glut_max_l/activation	iliopsoas_l/activation	rect_fem_l/activation	  vasti_l/activation	gastroc_l/activation	 soleus_l/activation	tib_ant_l/activation	
          1.29455765	         -8.04445459	          1.70199986	          0.90328409	         -5.76873605	         30.30347510	        -26.02424847	        -20.37324197	         -2.65409260	          8.83130381	          1.61621192	          0.17169088	          0.05000061	          0.14574792	          0.05000008	          0.05000019	          0.07917466	          0.05000004	          0.05000002	          0.23591988	          0.05000013	          0.06194551	          0.05000008	          0.39602094	          0.14053288	          0.05000004	          0.05425233	          0.05459940	          0.17415117	
          1.30750322	         -8.09246684	          1.72171978	          0.90147447	         -4.93562362	         29.46033838	        -28.50908288	        -20.89343826	         -2.15676288	          8.84295900	          1.97151979	          0.14122109	          0.05793811	          0.16018217	          0.05000006	          0.05000007	          0.08896563	          0.05718590	          0.05539391	          0.23076600	          0.05000065	          0.05276476	          0.05000007	          0.32595230	          0.11559273	          0.05000005	          0.05000054	          0.05000011	          0.16373130	
          1.32044880	         -8.14227632	          1.74127678	          0.89951550	         -3.98527728	         28.63251683	        -30.89716934	        -21.69636054	         -1.72462902	          8.96189335	          2.31065569	          0.11615874	          0.05347849	          0.18802414	          0.05000004	          0.05000006	          0.13738002	          0.05000004	          0.05000002	          0.24918511	          0.05000321	          0.05000137	          0.05000001	          0.28220685	          0.14610056	          0.05000007	          0.05000017	          0.05000006	          0.16304240	
          1.33339438	         -8.19510890	          1.76050716	          0.89784346	         -2.95494465	         27.93780162	        -33.03068488	        -22.70751843	         -1.37643732	          9.27740100	          2.61338760	          0.09554418	          0.05000060	          0.19673870	          0.05000005	          0.05000011	          0.19704433	          0.05000042	          0.05000011	          0.22731291	          0.05000041	          0.09664184	          0.05000009	          0.24661002	          0.18484235	          0.05000004	          0.05000045	          0.05000009	          0.16274299	
          1.34633995	         -8.25034488	          1.77939005	          0.89679580	         -1.87352531	         27.33562034	        -34.81173234	        -23.86303671	         -1.06317328	          9.87745436	          2.87654227	          0.07858807	          0.05000108	          0.19747200	          0.05000007	          0.05000011	          0.24598407	          0.07748942	          0.08577427	          0.18697213	          0.05000080	          0.16202523	          0.05000006	          0.21135902	          0.19983841	          0.05000003	          0.05000085	          0.05000009	          0.16403299	
          1.35928553	         -8.30816000	          1.79795691	          0.89659784	         -0.74792040	         26.66830536	        -36.23239324	        -24.85079770	         -0.75828168	         10.50437430	          3.10501298	          0.06533972	          0.06458788	          0.18064843	          0.05000007	          0.05000009	          0.27584980	          0.10145362	          0.11617279	          0.15591163	          0.06551540	          0.22033868	          0.05000006	          0.17845062	          0.20467200	          0.05000003	          0.05000986	          0.05000010	          0.16481915	
          1.37223111	         -8.36825748	          1.81623764	          0.89733585	          0.42940795	         25.81238195	        -37.35712660	        -25.42512647	         -0.45490940	         10.91658857	          3.30284852	          0.06488188	          0.05314174	          0.15080280	          0.05000006	          0.05000009	          0.28238274	          0.12735671	          0.14511218	          0.13280170	          0.07904796	          0.26963711	          0.05000007	          0.15108986	          0.20433194	          0.05000003	          0.05015804	          0.05000010	          0.16547777	
          1.38517668	         -8.42939637	          1.83424938	          0.89898229	          1.66836168	         24.72661569	        -38.27358231	        -25.50895018	         -0.15383721	         11.04834567	          3.47111664	          0.06800266	          0.05000061	          0.12455155	          0.05000004	          0.05000009	          0.25962432	          0.15329609	          0.16608115	          0.10923363	          0.07390918	          0.30607143	          0.05000008	          0.12574170	          0.19874813	          0.05000004	          0.05000739	          0.05000010	          0.16575624	
